<svg width="1257" height="322" viewBox="0 0 1257 322" fill="none" xmlns="http://www.w3.org/2000/svg"><path d="M679.429 279.01c3.16 0 7.32.67 9.25 1.5 1.92.82 4.62 2.62 6 4 2.28 2.28 2.37 2.67 1 4.5-1.48 1.97-1.57 1.95-6.08-1.25-3.62-2.57-5.58-3.25-9.33-3.25-3.4 0-5.84.72-8.66 2.57-2.16 1.41-4.72 4.22-5.68 6.25-.96 2.02-1.75 5.25-1.75 7.18 0 1.92.9 5.3 2 7.5q2 3.999 6 6c2.2 1.1 5.57 2 7.5 2 1.92 0 4.74-.48 6.25-1.07s3.76-2.051 7.23-5.43l4.049 4-2.269 2.38c-1.24 1.31-4.06 3.21-6.26 4.23-2.2 1.01-6.14 1.85-8.75 1.86-2.61.02-6.44-.67-8.5-1.53-2.06-.85-5.051-2.76-6.631-4.25-1.58-1.48-3.709-4.49-4.729-6.69-1.02-2.21-1.851-6.24-1.851-9s.831-6.8 1.851-9 3.149-5.21 4.729-6.69 4.231-3.39 5.881-4.25c1.69-.87 5.51-1.56 8.75-1.56m200.96 0c3.19 0 7.36.67 9.29 1.5 1.92.82 4.62 2.62 6 4 2.4 2.39 2.43 2.58.75 4.47-1.73 1.95-1.79 1.939-5.75-.92-2.2-1.59-5.35-3.19-7-3.56s-4.8-.13-7 .54-5.06 2.17-6.35 3.34-2.97 3.36-3.75 4.88c-.77 1.51-1.4 4.55-1.4 6.75s.79 5.64 1.75 7.64c.96 2.01 3.1 4.57 4.75 5.69 1.65 1.13 4.8 2.24 7 2.49s5.24.16 6.75-.19c1.51-.351 4.1-1.76 5.75-3.13 2.88-2.4 3.08-2.43 7.029 1l-2.269 2.38c-1.24 1.31-4.06 3.21-6.26 4.23-2.2 1.01-6.14 1.85-8.75 1.86-2.61.02-6.44-.67-8.5-1.53-2.06-.85-5.031-2.76-6.591-4.25-1.57-1.48-3.76-4.49-4.87-6.69-1.6-3.15-1.949-5.431-1.659-10.66.3-5.45.92-7.44 3.38-10.92 1.65-2.33 5.01-5.3 7.46-6.59 3.18-1.66 6.12-2.33 10.24-2.33m-99.21 0c.551 0 2.011 1.061 3.25 2.36 1.241 1.301 6.751 7.802 22.25 26.53l.25-13.95c.22-12.509.43-13.95 2-13.96.96-.01 2.32.55 3.02 1.25.93.941 1.26 6.391 1.25 21.02-.02 15.288-.3 19.668-1.27 19.42-.691-.172-6.652-6.693-25.25-28.63l-.5 27.96h-6v-21c0-13.338.36-20.998 1-21m-209.1 1c1.11-.01 4.39 6.16 10.75 20.25 8.74 19.32 9.06 20.27 7 20.83-1.18.32-2.6.43-3.15.24-.55-.181-2.24-3.031-6.5-12.32h-16l-2.75 6.01c-1.51 3.309-3.54 6.229-4.5 6.5-.96.269-2.4.15-3.18-.26-1.15-.601.381-4.812 7.65-21 6.329-14.109 9.559-20.249 10.68-20.25m-194.5-.78c7.559.38 11.17 1.05 14.35 2.64 2.34 1.18 5.169 3.37 6.289 4.89 1.12 1.51 2.531 4.32 3.131 6.25.6 1.92.92 6.23.71 9.56-.28 4.51-1.09 7.14-3.13 10.25-1.71 2.61-4.35 4.93-7 6.16-3.35 1.56-6.421 1.99-24.75 2.03l.15-21.15.16-21.14zm343.6 36.78h7.5c7.33 0 7.5.05 7.5 5h-21v-41h6zm33.67-37c.181 0 1.231.45 2.33 1 1.9.95 2 2.002 2 41h-6l-.171-20.34c-.09-11.179.211-20.628.671-21 .46-.36.98-.66 1.17-.66m79.869.62c.48-.39 1.791-.58 2.91-.42 1.98.29 2.061 1 2.551 41.8h-6l-.171-20.34c-.09-11.177.23-20.646.71-21.04m-388.05-.13.5 5.5h-19v11h5.5c5.45 0 5.5.03 5.5 3s-.05 3-11 3v14h9.5c9.47 0 9.5.01 9.5 5h-25l.04-21.03.031-21.03zm20.511-.5c.553.004 6.516 6.517 25.5 28.94l1-27.44 5.5-.5v20.5c0 18.888-.14 20.499-1.75 20.43-.99-.041-6.81-6.161-13.25-13.93-6.326-7.615-11.724-13.882-12-13.93-.28-.036-.39 6.236 0 27.93h-6v-21c0-13.328.36-20.998 1-21m70.75 2.75c-.2 2.2-.8 2.8-5.75 3.25v36l-5.5-.5-.5-35.5h-4c-2.92 0-4.17-.47-4.61-1.75-.34-.96-.35-2.31-.03-3 .41-.88 3.57-1.25 20.64-1.25zm76.75-2.25.5 18.25c.27 10.038.83 18.257 1.25 18.25h7.25c6.26 0 6.5.09 6.5 5h-21l.07-21.06.07-21.07zm-241.35 20.87-.14 15.64c5.81-.07 9.52-.5 12-1 2.9-.58 5.56-1.99 7.5-3.98 2.57-2.64 3.04-3.95 3.3-9.3.24-4.92-.13-6.91-1.75-9.47-1.13-1.79-3.29-4.02-4.8-4.96-1.58-.97-5.581-1.89-9.36-2.13l-6.611-.43zm-309.15-65.36h-54v60h334v9h-344l-.16-38.84c-.1-21.354.2-39.12.66-39.5.46-.36 14.94-.66 63.5-.66zm1155.001-9.83c10.18-.1 22.67.16 37.04 1.33l-.54 77-343.501.5v-9h335.001v-60l-3.75-.13c-2.06-.07-10.95-.02-19.75.11-8.8.12-19.48-.05-31.5-.98v-4c0-3.99.02-4 4.25-4.33 2.34-.18 12.58-.4 22.75-.5M572.279 292c-.51.001-1.681 1.91-2.611 4.25-.94 2.34-1.869 4.81-2.089 5.5-.28.89 1.07 1.25 4.61 1.25s4.889-.36 4.609-1.25c-.21-.69-1.11-3.16-2-5.5s-2.019-4.25-2.519-4.25M519.179.99c3.02-.47 9.1-.61 13.5-.32s10.7 1.37 14 2.39c3.3 1.03 8.7 3.48 12 5.46s9.08 6.6 12.84 10.29c3.76 3.68 8.82 9.28 11.25 12.44 2.42 3.16 4.3 6.15 4.16 6.65-.141.491-3.961 3.861-8.5 7.5-4.537 3.628-8.376 6.486-8.54 6.35-.161-.142-2.811-3.401-5.89-7.25-3.08-3.85-7.79-9-10.46-11.45s-7.34-5.6-10.36-7c-4.68-2.17-6.92-2.55-15-2.55-8.239 0-10.23.35-15 2.66-3.02 1.46-7.04 4.39-8.93 6.5-1.88 2.11-4.53 6.32-5.88 9.34-2.08 4.65-2.401 6.66-2.071 13 .28 5.51 1.091 8.96 3.051 13 1.47 3.02 4.84 7.92 7.5 10.89 2.66 2.96 8.66 8.41 13.33 12.1 4.67 3.7 13.45 10.25 19.5 14.57 6.05 4.31 15.27 11.28 20.5 15.47 5.23 4.2 12.099 10.52 15.289 14.05 3.21 3.57 7.701 10.19 10.101 14.92 2.37 4.68 4.89 11.2 5.59 14.5.78 3.67 1.07 9.3.74 14.5-.3 4.72-1.48 11.17-2.65 14.5-1.16 3.3-3.56 8.39-5.34 11.31s-5.07 7.42-7.31 10c-2.25 2.579-7.2 6.83-11 9.45-3.81 2.62-10.07 5.87-13.92 7.22-3.85 1.36-10.6 2.92-15 3.49-5.37.68-10.87.69-16.75.02-4.81-.54-11.56-2.01-15-3.25s-8.941-3.83-12.221-5.75c-3.29-1.92-9.38-6.87-13.54-10.99-4.159-4.13-10.359-11.66-13.779-16.75-3.41-5.09-6.21-9.7-6.21-10.25s4.05-3.48 9-6.5c4.949-3.019 9.118-5.389 9.26-5.25.151.142 2.8 4.072 5.899 8.75 3.1 4.68 8.101 10.98 11.111 14 3 3.02 8.339 7.18 11.849 9.23 4.38 2.56 8.571 4.08 13.381 4.87 5.18.84 8.69.85 13.5.02 3.58-.61 9.31-2.46 12.75-4.11 3.44-1.66 8.409-5.15 11.039-7.76 2.64-2.61 5.781-6.77 6.981-9.25s2.61-6.75 3.15-9.5c.55-2.87.63-7.56.17-11-.44-3.3-2.02-8.7-3.52-12-1.99-4.37-5.08-8.32-11.4-14.57-4.77-4.72-14.12-12.59-20.78-17.5-6.65-4.91-15.85-11.63-20.43-14.93s-12.401-10.05-17.39-15-10.65-11.68-12.57-14.97c-1.92-3.28-4.5-8.9-5.721-12.5-1.669-4.88-2.239-8.93-2.279-16.03-.03-6.74.53-11.39 1.94-16 1.09-3.57 3.4-8.75 5.12-11.5s5-6.95 7.29-9.34c2.28-2.39 5.95-5.61 8.15-7.17 2.2-1.55 7.15-4.02 11-5.48 3.85-1.47 9.48-3.05 12.5-3.52m124 80.01h39v19h-39l.32 40.75c.28 35.08.57 41.58 2.07 46.75.95 3.3 3.17 8.66 4.92 11.91 1.76 3.25 4.99 7.38 7.19 9.19 2.2 1.8 6.02 3.99 8.5 4.86s6.98 1.56 10 1.53 7.83-.83 15.86-3.49l3.049 8c2.4 6.27 2.79 8.24 1.821 9.1-.67.61-3.03 1.81-5.23 2.66s-6.92 2.06-10.5 2.7c-4.81.85-8.45.86-14 .05-4.18-.61-10.26-2.41-13.75-4.05-3.63-1.72-9.01-5.58-12.85-9.21-4.94-4.68-7.591-8.26-10.531-14.25-2.16-4.4-4.689-10.48-5.609-13.5-1.5-4.94-1.7-15.06-2-99.25L622.099 0h21.08zm146-22.57c4.24-.87 11.561-1.23 21-1.02 9.54.22 16.56.9 20.5 1.99 3.3.92 9.38 3.27 13.5 5.22 4.13 1.95 10.2 5.47 13.5 7.83s8.71 7.16 12.01 10.67 8.239 9.99 10.979 14.39c2.73 4.4 6.201 11.6 7.701 16s3.43 12.05 4.28 17 1.539 11.92 1.519 15.5c-.01 3.57-.489 9.65-1.049 13.5s-2.39 11.05-4.06 16-4.751 11.92-6.841 15.5c-2.1 3.57-6 9.18-8.67 12.45-2.68 3.28-7.789 8.35-11.369 11.28-3.57 2.93-9.87 7.07-14 9.2-4.12 2.13-10.42 4.769-14 5.87-3.57 1.1-11.22 2.54-17 3.21-7.789.889-12.81.93-19.5.13-4.95-.6-12.15-2.05-16-3.23s-9.92-3.62-13.5-5.42c-3.57-1.8-9.2-5.28-12.5-7.75-3.3-2.46-8.191-6.9-10.881-9.86-2.68-2.96-6.699-8.08-8.939-11.38-2.23-3.3-5.281-8.7-6.771-12-1.5-3.3-3.75-9.83-5-14.5-1.89-7.01-2.29-11.05-2.29-23 0-11.91.411-16.03 2.271-23 1.25-4.68 4.06-12.33 6.26-17 2.2-4.68 5.92-11.2 8.28-14.5s7.17-8.67 10.68-11.94c3.52-3.26 9.09-7.66 12.39-9.78s9.38-5.24 13.5-6.94c4.13-1.7 10.43-3.69 14-4.42m-461 .07c4.58-1.02 11.091-1.36 22-1.14 14.43.28 16.16.53 25 3.54 5.23 1.78 11.75 4.52 14.5 6.08 2.75 1.57 8.15 5.28 12 8.26 4.28 3.3 9.63 8.89 13.76 14.34 3.72 4.91 8.07 12.08 9.67 15.93 1.61 3.85 3.85 10.6 4.99 15 1.15 4.4 2.42 11.94 3.58 25.51l-150.5-.01.02 5.75c.01 3.16.7 8.67 1.53 12.25.84 3.57 3.279 10.1 5.439 14.5 2.27 4.64 6.381 10.72 9.781 14.5 3.23 3.57 8.88 8.41 12.55 10.75 3.679 2.33 10.17 5.45 14.43 6.93 6.8 2.35 9.291 2.68 20.25 2.69 10.86 0 13.55-.35 20.5-2.65 4.4-1.46 10.7-4.28 14-6.27s8.009-5.27 10.449-7.28c2.45-2.02 6.441-6.37 8.871-9.67s5.38-7.901 8.68-14.45l8.76 4.72c4.809 2.6 8.749 5.059 8.75 5.48 0 .41-1.18 3.11-2.61 6-1.43 2.88-4.99 8.4-7.9 12.25-2.92 3.85-7.49 8.84-10.15 11.1-2.67 2.25-7.55 5.82-10.85 7.92s-8.92 5.05-12.5 6.56c-3.57 1.51-9.87 3.42-14 4.24-4.12.83-10.65 1.8-14.5 2.17-3.85.36-11.72.14-17.5-.5-5.77-.63-14.55-2.46-19.5-4.05s-11.871-4.59-15.381-6.67-9.539-6.7-13.399-10.27c-3.85-3.58-8.91-9.2-11.24-12.5s-5.641-8.82-7.361-12.25c-1.71-3.44-4.329-10.19-5.809-15-2.49-8.06-2.701-10.1-2.691-25.75.01-14.38.351-18.24 2.201-25 1.21-4.4 4.149-12.05 6.549-17 2.39-4.95 7.001-12.36 10.241-16.46 3.24-4.11 9.27-10.13 13.39-13.38 4.13-3.25 9.98-7.14 13-8.64 3.03-1.5 7.53-3.48 10-4.4 2.48-.92 7.43-2.33 11-3.13m784.751-.5c5.09 0 11.62.5 14.5 1.1 2.89.6 8.61 2.73 12.71 4.75 4.86 2.38 9.57 5.75 13.5 9.66 3.32 3.3 7.48 8.7 9.24 12s4.14 8.7 5.29 12c1.14 3.3 2.8 10.05 3.69 15 1.31 7.34 1.67 19.14 2.32 119.5h-21l-.02-40.75c-.02-22.42-.43-48.4-.92-57.75-.5-9.35-1.61-20.04-2.48-23.75-.87-3.72-2.7-9-4.08-11.75-1.37-2.75-4.41-6.89-6.75-9.2-2.33-2.31-6.95-5.46-10.25-7-3.57-1.67-8.62-3.05-12.5-3.43-3.68-.36-8.77-.14-11.75.5-2.88.62-7.83 2.33-11 3.8-3.56 1.66-8.26 5.18-12.34 9.25-4.66 4.64-7.66 8.79-10.2 14.08-1.99 4.12-4.38 10.42-5.33 14-1.5 5.67-1.76 13.23-2.38 112h-21l-.11-3.75c-.06-2.072-.42-27.153-1.52-107.75l-2.64-8c-1.46-4.4-4.4-10.93-6.54-14.5-2.62-4.38-5.89-8.05-10.04-11.25-3.87-2.99-8.28-5.36-11.9-6.38-4.03-1.14-8.43-1.51-14.751-1.23-7.58.32-10.02.88-15.5 3.54-4.16 2.02-8.39 5.17-11.75 8.74-2.88 3.07-6.581 8.39-8.211 11.83-1.63 3.43-3.75 8.95-4.71 12.25-1.56 5.33-1.779 12.11-2.329 116.5h-22v-46c0-26.82.47-50.28 1.11-56.25.61-5.64 2.19-14.53 3.52-19.75 1.33-5.23 4.079-12.88 6.109-17 2.79-5.66 5.791-9.59 12.231-16.02 5.49-5.48 10.85-9.75 15.03-11.95 3.58-1.89 9.2-4.24 12.5-5.23 4.81-1.43 8.501-1.71 18.5-1.38 6.971.23 14.501 1.06 17.001 1.86 2.48.8 6.3 2.36 8.5 3.47s6.37 3.87 9.25 6.13c2.89 2.26 7.55 7.38 10.36 11.37 2.8 3.98 6.07 9.17 7.25 11.51 1.18 2.348 2.37 4.247 2.64 4.22.28-.02 2.08-2.84 4-6.26 1.93-3.41 7.1-9.84 11.5-14.27 5.48-5.52 10.21-9.21 15-11.7 3.85-1.99 9.7-4.33 13-5.2 3.38-.88 10.05-1.56 15.25-1.56M128.569 5.24c43.119.35 45.47.46 53.12 2.61 4.4 1.23 10.68 3.68 13.96 5.45 3.28 1.76 8.45 5.49 11.5 8.29 3.39 3.12 6.96 7.78 9.2 12 2.02 3.8 4.46 9.83 5.44 13.41 1.19 4.36 1.78 10.11 1.78 17.5.01 8.49-.481 12.6-2.151 18-1.19 3.85-3.87 9.87-5.95 13.38s-6.709 9.071-10.279 12.35c-3.95 3.62-9.65 7.49-14.5 9.86-4.68 2.28-12.24 4.83-28.41 8.41l1.83 3c1 1.651 14.54 23.92 30.08 49.5 15.54 25.57 29.1 47.96 32 53l-27.21-.5-20.061-32.5c-11.03-17.88-25.569-41.5-44.569-72.5l-29.16-.5v106h-22l-.25-56.25c-.14-30.94-.08-82.04.13-113.56l.39-57.32zm681.62 72.17c-8.23-.29-13.07.03-17 1.1-3.03.83-9.1 3.28-13.5 5.44s-10.48 6.13-13.5 8.81c-3.03 2.68-7.62 8-10.2 11.81-2.58 3.82-5.89 9.86-7.35 13.44-1.46 3.57-3.29 9.76-4.06 13.75-.77 3.98-1.39 10.4-1.39 14.25s.63 10.26 1.41 14.25c.77 3.98 2.38 9.72 3.58 12.75 1.2 3.02 4.11 8.42 6.47 12 2.37 3.57 6.759 8.75 9.769 11.5s7.901 6.46 10.871 8.24c2.969 1.78 8.77 4.46 12.9 5.94 6.58 2.36 8.97 2.69 19.5 2.68 9.85-.01 13.16-.41 18.5-2.27 3.57-1.25 9.2-3.68 12.5-5.42 3.42-1.8 9.249-6.381 13.569-10.66 6.06-6.02 8.511-9.41 12.281-17.01 3.2-6.47 5.21-12.22 6.29-18 1.11-5.92 1.43-11.39 1.04-18-.31-5.23-1.27-12.2-2.13-15.5-.87-3.3-3.45-9.83-5.75-14.5-3.2-6.5-5.961-10.29-11.74-16.08-4.16-4.17-10.04-8.99-13.06-10.7-3.03-1.72-8.2-4.09-11.5-5.27-4.4-1.57-9.08-2.25-17.5-2.55m7.77 23.36c5.14-.86 9.681-1.09 12-.6 2.08.45 5.161 2.23 7 4.059 1.8 1.801 4.02 5.291 4.92 7.771 1.13 3.1 1.49 6.36 1.15 10.5-.34 4.07-1.68 8.49-4.17 13.75-3.43 7.23-3.75 8.72-4.71 22-.57 7.84-1.64 17.18-2.38 20.75-.73 3.58-2.07 7.96-2.96 9.75-.9 1.79-2.3 3.25-3.13 3.25s-2.62-1.35-4-3c-1.37-1.65-3.37-6.04-4.44-9.75-1.06-3.71-2.61-9.23-3.44-12.25-.82-3.02-2.42-6.74-3.56-8.25-1.13-1.51-2.96-2.98-4.06-3.25s-4.02.4-6.5 1.5c-3.21 1.43-5.04 3.07-6.4 5.75-1.04 2.06-3.11 8.25-4.59 13.75s-3.33 11.01-4.1 12.25c-.78 1.24-2.42 2.26-3.66 2.28q-2.25.02-3.58-2.75c-.73-1.53-1.94-7.05-2.69-12.28-.74-5.23-1.32-15.12-1.27-22 .08-11.81-.09-12.93-3.06-20.25-2.46-6.05-3.15-9.23-3.14-14.5 0-3.71.45-8.44 1-10.5.68-2.58 2.01-4.36 4.24-5.69 2.98-1.78 4.651-1.9 20.25-1.42 12.12.38 19.37.13 25.28-.87m-471.27-23.72c-5.29.05-11.69.81-15.5 1.85-3.58.98-8.98 3.03-12 4.56-3.03 1.53-7.69 4.41-10.36 6.41-2.68 2-7.33 6.79-10.34 10.64-3.02 3.85-6.75 9.7-8.3 13s-3.31 7.68-3.91 9.75l-1.09 3.75c120.38 0 123.99-.11 123.97-1.75-.011-.971-1.14-4.901-2.52-8.75-1.37-3.85-3.951-9.21-5.721-11.91-1.78-2.7-6.049-7.54-9.479-10.75-3.49-3.26-9.46-7.45-13.5-9.46-3.99-2-10.63-4.48-14.75-5.52-4.79-1.2-10.77-1.86-16.5-1.82M105.298 64.89l-.119 39.11c54.019-.61 60.6-.99 65.5-2.38 3.3-.94 8.03-2.68 10.5-3.88 2.47-1.19 6.32-3.99 8.55-6.21 2.22-2.21 5.37-6.73 7-10.03 2.75-5.59 2.95-6.78 2.95-17.5 0-10.42-.251-12.02-2.671-17-1.46-3.02-4.5-7.19-6.75-9.25-2.24-2.06-5.879-4.65-8.079-5.75s-6.59-2.73-9.75-3.63c-4.53-1.28-12.251-1.73-36.381-2.11l-30.639-.49z" fill="#f1f4f6"/></svg>